PathFileType	4	(X/Y/Z)	7_coords_data.trc
DataRate	CameraRate	NumFrames	NumMarkers	Units	OrigDataRate	OrigDataStartFrame	OrigNumFrames
30.0	30.0	6	21	m	30.0	1	65
Frame#	Time	THUMB_TIP	THUMB_IP	THUMB_MCP	THUMB_CMC	INDEX_TIP	INDEX_DIP	INDEX_PIP	INDEX_MCP	MIDDLE_TIP	MIDDLE_DIP	MIDDLE_PIP	MIDDLE_MCP	RING_TIP	RING_DIP	RING_PIP	RING_MCP	PINKY_TIP	PINKY_DIP	PINKY_PIP	PINKY_MCP	WRIST
X1	Y1	Z1	X2	Y2	Z2	X3	Y3	Z3	X4	Y4	Z4	X5	Y5	Z5	X6	Y6	Z6	X7	Y7	Z7	X8	Y8	Z8	X9	Y9	Z9	X10	Y10	Z10	X11	Y11	Z11	X12	Y12	Z12	X13	Y13	Z13	X14	Y14	Z14	X15	Y15	Z15	X16	Y16	Z16	X17	Y17	Z17	X18	Y18	Z18	X19	Y19	Z19	X20	Y20	Z20	X21	Y21	Z21
0	0.0	-0.048402099609375	-0.08945429992675781	0.9854219970703125	-0.038049800872802735	-0.06925460052490234	0.99831201171875	-0.04631980133056641	-0.04738650131225586	1.0156400146484375	-0.04648949813842773	-0.01558899974822998	1.0308299560546874	-0.015340900421142578	-0.029032899856567384	0.893343994140625	-0.02067259979248047	-0.026854000091552734	0.9160910034179688	-0.023848499298095703	-0.023990999221801756	0.9394650268554687	-0.028820899963378905	-0.017368600845336913	0.9720689697265625	-0.010534500122070313	0.016741600036621094	0.8869500122070313	-0.020211999893188476	0.01671139907836914	0.9088179931640625	-0.028061700820922852	0.014022199630737305	0.9381430053710937	-0.02806049919128418	0.0064030299186706545	0.9729660034179688	0.005798460006713867	0.05214149856567383	0.9120130004882813	-0.0021884601116180418	0.04663690185546875	0.9312839965820312	-0.009040399551391602	0.03672219848632813	0.9521160278320312	-0.01365939998626709	0.024321300506591797	0.981864990234375	0.020777200698852537	0.07907669830322266	0.9675750122070312	0.011082599639892578	0.06571890258789062	0.9775869750976562	0.00171875	0.05492599868774414	0.9870700073242188	-0.011936400413513184	0.03584389877319336	0.998760986328125	-0.06100019836425781	0.013908599853515625	1.0453499755859375
1	0.03333333333333333	-0.04715760040283203	-0.0894822006225586	0.9852650146484375	-0.03890959930419922	-0.06830410003662109	0.9977949829101562	-0.04551580047607422	-0.04699589920043945	1.0151900024414062	-0.046125099182128905	-0.015819899559020995	1.0318699951171875	-0.015138500213623047	-0.028667499542236328	0.8948209838867187	-0.019475299835205077	-0.02628310012817383	0.9172969970703125	-0.023374300003051757	-0.023467599868774416	0.9398679809570313	-0.029790199279785157	-0.01589929962158203	0.9751209716796875	-0.010600199699401855	0.01777910041809082	0.887593017578125	-0.01994350051879883	0.01734429931640625	0.909948974609375	-0.027186899185180663	0.014163999557495118	0.9365800170898437	-0.02814669990539551	0.007303770065307617	0.9732930297851563	0.006309040069580078	0.05280390167236328	0.9120770263671875	-0.002742089986801147	0.046250999450683596	0.932010986328125	-0.009667099952697754	0.03757149887084961	0.953447998046875	-0.01752560043334961	0.02418989944458008	0.9829650268554687	0.01977330017089844	0.07937599945068359	0.967448974609375	0.011291399955749511	0.06606529998779297	0.9781170043945312	0.003144020080566406	0.05444409942626953	0.98693701171875	-0.011492799758911133	0.036552398681640626	0.9989710083007812	-0.061298999786376956	0.015580100059509277	1.0442900390625
2	0.06666666666666667	-0.04682600021362305	-0.0891364974975586	0.9849420166015626	-0.03859859848022461	-0.0679529037475586	0.9974439697265625	-0.045249099731445315	-0.04659170150756836	1.0149299926757813	-0.04581320190429688	-0.015444700241088866	1.0316199951171876	-0.015200099945068359	-0.028247800827026368	0.8944650268554688	-0.019395599365234373	-0.025899900436401366	0.9170180053710938	-0.02323189926147461	-0.023117900848388672	0.939573974609375	-0.029579500198364257	-0.015554699897766113	0.97489697265625	-0.010431200027465821	0.018252399444580077	0.88725	-0.019756500244140624	0.017731300354003908	0.9095830078125	-0.02701700019836426	0.014498600006103516	0.9361900024414063	-0.027982999801635742	0.007631939888000488	0.9728790283203125	0.006440130233764649	0.052932098388671876	0.9117030029296875	-0.002646519899368286	0.04646680068969727	0.9315859985351562	-0.009577699661254883	0.037848800659179685	0.9530460205078125	-0.01748430061340332	0.024567800521850584	0.9826240234375	0.019587900161743162	0.07983100128173828	0.9667830200195312	0.011192299842834473	0.06649629974365234	0.9775159912109375	0.003114559888839721	0.05485829925537109	0.9864210205078126	-0.011435999870300292	0.03691120147705078	0.9985349731445312	-0.06100389862060547	0.0158681001663208	1.044050048828125
3	0.1	-0.04677450180053711	-0.08861070251464843	0.9842100219726563	-0.038564300537109374	-0.0674926986694336	0.996864013671875	-0.04520640182495117	-0.04625600051879883	1.0144299926757812	-0.0458021011352539	-0.015128399848937988	1.031199951171875	-0.015277600288391114	-0.027364200592041015	0.8939249877929687	-0.0194419002532959	-0.025144500732421873	0.9165139770507813	-0.023197999954223635	-0.02244969940185547	0.9391849975585937	-0.02952199935913086	-0.01503030014038086	0.9745	-0.010371399879455566	0.01901849937438965	0.88689501953125	-0.01963249969482422	0.018440900802612306	0.9092689819335937	-0.02687969970703125	0.015118300437927246	0.9358510131835938	-0.027928800582885743	0.008153249740600586	0.9725709838867187	0.006454639911651612	0.053547500610351566	0.911416015625	-0.002612740039825439	0.047019599914550785	0.9313200073242187	-0.00953975009918213	0.038367198944091796	0.95277099609375	-0.01730069923400879	0.025015899658203125	0.9822269897460938	0.019586999893188475	0.08039610290527344	0.9667269897460937	0.011329500198364258	0.0670290985107422	0.977364013671875	0.003253010034561157	0.055326698303222656	0.9862449951171876	-0.011285699844360352	0.037298999786376956	0.9982899780273438	-0.061053901672363284	0.01621389961242676	1.04372998046875
4	0.13333333333333333	-0.04660770034790039	-0.08829550170898437	0.9835670166015625	-0.03857260131835937	-0.06710870361328125	0.996344970703125	-0.045283100128173825	-0.04589229965209961	1.0140599975585938	-0.04579840087890625	-0.014944100379943847	1.0308199462890626	-0.015600600242614747	-0.026590599060058593	0.8934509887695312	-0.019754299163818358	-0.02446809959411621	0.9160020141601563	-0.02347130012512207	-0.02188949966430664	0.938760986328125	-0.029751600265502928	-0.014612199783325196	0.9740999755859375	-0.010645299911499024	0.01976539993286133	0.88660498046875	-0.019942399978637695	0.019111900329589843	0.908969970703125	-0.027200899124145507	0.015633299827575685	0.9355770263671875	-0.028183399200439455	0.008561169624328614	0.972281005859375	0.0059905099868774415	0.05420800018310547	0.9111680297851562	-0.0031007499694824217	0.04755849838256836	0.9310900268554687	-0.009958589553833008	0.03884249877929687	0.9524979858398438	-0.01760770034790039	0.025416299819946288	0.9819329833984375	0.018997600555419922	0.08098320007324218	0.9665679931640625	0.010890700340270997	0.06755989837646484	0.9771729736328125	0.002910989999771118	0.05585210037231445	0.9860180053710937	-0.011530699729919434	0.037715198516845704	0.99802197265625	-0.06116640090942383	0.016371999740600586	1.0433599853515625
5	0.16666666666666666	-0.0468490982055664	-0.08835970306396485	0.983697998046875	-0.03890439987182617	-0.06713030242919922	0.996426025390625	-0.04559130096435547	-0.0459896011352539	1.014	-0.04619860076904297	-0.014836799621582032	1.0308199462890626	-0.015549099922180176	-0.027029300689697267	0.8935239868164062	-0.019769399642944337	-0.024823200225830077	0.916093017578125	-0.023580699920654296	-0.022151599884033202	0.938781005859375	-0.02999810028076172	-0.014731900215148926	0.9740449829101563	-0.010617899894714355	0.019389999389648437	0.8865609741210938	-0.019973899841308592	0.01878179931640625	0.9088989868164062	-0.027305799484252928	0.015410599708557128	0.9354450073242188	-0.028418800354003907	0.008408340454101562	0.9721680297851563	0.0059041399955749516	0.05368780136108398	0.9109329833984375	-0.0032066900730133054	0.04718989944458008	0.9308159790039062	-0.010133600234985352	0.038615100860595705	0.9523259887695312	-0.017890100479125978	0.025353500366210938	0.98177001953125	0.018770999908447265	0.0807313003540039	0.9661190185546875	0.010634499549865723	0.06739129638671874	0.9767520141601562	0.002630889892578125	0.0557505989074707	0.9856209716796875	-0.011838299751281738	0.03768239974975586	0.9978350219726563	-0.061498798370361325	0.016481700897216796	1.04325
